<svg width="30" height="30" viewBox="0 0 30 30" fill="none" xmlns="http://www.w3.org/2000/svg">
<g clip-path="url(#clip0_100_4761)">
<path d="M28.6575 7.82994C30.445 6.03994 30.445 3.13119 28.6575 1.34494C26.87 -0.445059 23.9575 -0.445059 22.1713 1.34494L8.50002 15.0137C6.61377 14.9099 4.69377 15.5774 3.25502 17.0149C1.37877 18.8924 0.318769 24.1912 0.021269 26.7287C-0.083731 27.6199 0.218769 28.4937 0.851269 29.1262C1.40002 29.6762 2.13252 29.9774 2.90127 29.9774C3.01752 29.9774 3.13377 29.9699 3.24877 29.9562C3.55002 29.9212 10.6713 29.0587 12.985 26.7449C14.4225 25.3074 15.0888 23.3874 14.985 21.5012L28.6575 7.82994ZM11.2163 24.9762C10.1488 26.0437 6.09752 27.1024 2.95502 27.4724C2.78627 27.4987 2.67002 27.4099 2.61752 27.3574C2.56627 27.3062 2.48252 27.1937 2.50252 27.0187C2.87002 23.8912 3.97002 19.8349 5.02252 18.7812C5.87752 17.9274 6.99752 17.5012 8.12002 17.5012C9.24252 17.5012 10.3625 17.9287 11.2175 18.7812C12.925 20.4887 12.925 23.2674 11.2175 24.9749L11.2163 24.9762ZM12.9838 17.0149C12.47 16.5012 11.8938 16.0849 11.28 15.7687L23.9375 3.11119C24.75 2.29869 26.0763 2.29869 26.8888 3.11119C27.7013 3.92369 27.7013 5.24744 26.8888 6.06119L14.23 18.7187C13.9125 18.1049 13.4975 17.5287 12.9838 17.0149Z" fill="#B57B42"/>
<path d="M5.90256 12.3876C6.14631 12.6313 6.46631 12.7538 6.78631 12.7538C7.10631 12.7538 7.42631 12.6313 7.67006 12.3876C8.15881 11.8988 8.15881 11.1088 7.67006 10.6201L3.11256 6.06258C2.29881 5.24883 2.29881 3.92508 3.11256 3.11133C3.92631 2.29883 5.25131 2.29883 6.06256 3.11133L10.6201 7.67008C11.1088 8.15883 11.8988 8.15883 12.3876 7.67008C12.8763 7.18133 12.8763 6.39133 12.3876 5.90258L7.83006 1.34383C6.04006 -0.443667 3.13131 -0.443667 1.34381 1.34258C-0.44369 3.12883 -0.44494 6.04133 1.34381 7.82883L5.90131 12.3863L5.90256 12.3876Z" fill="#B57B42"/>
<path d="M27.8024 21.3175L24.1087 17.6225C23.6199 17.1337 22.8299 17.1337 22.3412 17.6225C21.8524 18.1112 21.8524 18.9012 22.3412 19.39L26.0349 23.085C26.9662 24.015 27.4999 25.3025 27.4999 26.62V27.5H26.6212C25.2849 27.5 24.0287 26.98 23.0849 26.035L19.3899 22.3412C18.9012 21.8525 18.1112 21.8525 17.6224 22.3412C17.1337 22.83 17.1337 23.62 17.6224 24.1087L21.3174 27.8025C22.7324 29.22 24.6174 30 26.6212 30H28.7499C29.4412 30 29.9999 29.4412 29.9999 28.75V26.62C29.9999 24.645 29.1987 22.7112 27.8024 21.3175Z" fill="#B57B42"/>
</g>
<defs>
<clipPath id="clip0_100_4761">
<rect width="30" height="30" fill="white"/>
</clipPath>
</defs>
</svg>
