<svg width="32" height="32" viewBox="0 0 32 32" fill="none" xmlns="http://www.w3.org/2000/svg">
<g clip-path="url(#clip0_100_4768)">
<path d="M21.6425 11.5746L17.3292 16.2093C16.5945 16.9466 15.6612 17.3333 14.6665 17.3333C13.6719 17.3333 12.7399 16.9466 12.0372 16.2439L10.0692 14.2759C9.54787 13.7546 9.54787 12.9119 10.0692 12.3906C10.5905 11.8693 11.4332 11.8693 11.9545 12.3906L13.9225 14.3586C14.3199 14.7559 15.0132 14.7559 15.4092 14.3586L19.6905 9.75861C20.1932 9.21861 21.0372 9.19061 21.5745 9.69061C22.1132 10.1919 22.1439 11.0359 21.6425 11.5746ZM31.8999 26.8413C31.5985 27.5653 30.9279 28.0146 30.1452 28.0146H28.0625V30.0973C28.0625 31.2879 27.0905 31.9999 26.1492 31.9999C25.6465 31.9999 25.1865 31.8066 24.8199 31.4399L18.9985 25.6186C18.9985 25.6186 18.9945 25.6106 18.9905 25.6066C18.7679 25.7853 18.5492 25.9679 18.2905 26.1119C17.5945 26.4986 16.8132 26.6919 16.0332 26.6919C15.2532 26.6919 14.4719 26.4986 13.7745 26.1119C13.5119 25.9666 13.2879 25.7813 13.0612 25.5986C13.0559 25.6053 13.0532 25.6133 13.0479 25.6199L7.22653 31.4413C6.8612 31.8079 6.4012 32.0013 5.8972 32.0013C4.9572 32.0013 3.9852 31.2893 3.9852 30.0986V28.0159H1.90253C1.11987 28.0159 0.447867 27.5679 0.147867 26.8453C-0.152133 26.1199 0.00653374 25.3279 0.559867 24.7746L5.2812 20.0546C5.20653 19.4919 5.22387 18.9306 5.3492 18.3799C5.43587 17.9999 5.2532 17.5906 4.89587 17.3599C4.23053 16.9306 3.69187 16.3479 3.2932 15.6306C2.9132 14.9439 2.7132 14.1573 2.7172 13.3519C2.7132 12.5586 2.91187 11.7706 3.2932 11.0839C3.69053 10.3653 4.23053 9.78261 4.89587 9.35461C5.2532 9.12394 5.43587 8.71461 5.3492 8.33594C5.17053 7.54528 5.1972 6.73594 5.42787 5.92928C5.86787 4.39861 7.09053 3.17594 8.6212 2.73594C9.42653 2.50528 10.2359 2.47861 11.0252 2.65728C11.4079 2.74128 11.8145 2.55994 12.0452 2.20261C12.4732 1.53861 13.0559 0.999944 13.7745 0.601278C15.1665 -0.170722 16.8972 -0.170722 18.2905 0.601278C19.0092 0.999944 19.5905 1.53861 20.0185 2.20394C20.2492 2.56128 20.6625 2.74528 21.0385 2.65728C21.8265 2.47728 22.6372 2.50528 23.4439 2.73594C24.9745 3.17594 26.1985 4.39861 26.6385 5.92928C26.8692 6.73728 26.8959 7.54794 26.7172 8.33728C26.6319 8.71594 26.8132 9.12528 27.1705 9.35594C27.8359 9.78528 28.3759 10.3666 28.7732 11.0853C29.1532 11.7719 29.3532 12.5586 29.3492 13.3639C29.3532 14.1573 29.1545 14.9453 28.7732 15.6319C28.3759 16.3493 27.8359 16.9319 27.1719 17.3613C26.8132 17.5919 26.6305 18.0013 26.7172 18.3813C26.8439 18.9373 26.8625 19.5039 26.7839 20.0733L31.4879 24.7773C32.0412 25.3306 32.1985 26.1226 31.8999 26.8453V26.8413ZM10.8052 24.0906C10.0865 24.2186 9.3532 24.1853 8.6212 23.9773C7.78653 23.7386 7.05853 23.2506 6.48387 22.6213L3.7572 25.3479H5.31987C6.05587 25.3479 6.6532 25.9453 6.6532 26.6813V28.2426L10.8065 24.0893L10.8052 24.0906ZM21.6292 21.4546C21.9745 21.5333 22.3385 21.5186 22.7105 21.4133C23.3545 21.2293 23.8905 20.6933 24.0759 20.0493C24.1812 19.6786 24.1959 19.3146 24.1172 18.9679C23.7839 17.4999 24.4305 15.9533 25.7265 15.1173C26.0185 14.9279 26.2599 14.6653 26.4425 14.3359C26.6012 14.0493 26.6852 13.7119 26.6839 13.3613C26.6852 12.9999 26.6012 12.6626 26.4425 12.3746C26.2599 12.0439 26.0199 11.7813 25.7265 11.5933C24.4305 10.7573 23.7852 9.21061 24.1172 7.74394C24.1959 7.39728 24.1825 7.03328 24.0759 6.66128C23.8919 6.01861 23.3545 5.48261 22.7105 5.29728C22.3412 5.19061 21.9772 5.17861 21.6292 5.25594C20.1665 5.59194 18.6172 4.94394 17.7799 3.64794C17.5919 3.35594 17.3292 3.11461 16.9999 2.93194C16.4132 2.60661 15.6545 2.60794 15.0692 2.93194C14.7385 3.11594 14.4759 3.35594 14.2879 3.64794C13.4532 4.94261 11.9079 5.59194 10.4372 5.25728C10.0892 5.17861 9.72787 5.19194 9.3572 5.29861C8.7132 5.48394 8.17587 6.01861 7.99187 6.66261C7.8852 7.03328 7.87187 7.39728 7.95053 7.74528C8.28387 9.21061 7.6372 10.7586 6.3412 11.5946C6.0492 11.7826 5.8092 12.0453 5.62653 12.3759C5.46653 12.6639 5.38253 13.0013 5.3852 13.3506C5.38387 13.7119 5.46787 14.0493 5.62653 14.3373C5.81053 14.6679 6.05053 14.9306 6.34387 15.1199C7.63853 15.9546 8.2852 17.5026 7.95187 18.9693C7.8732 19.3146 7.88787 19.6799 7.99453 20.0519C8.17987 20.6946 8.71453 21.2306 9.35853 21.4146C9.72787 21.5213 10.0919 21.5346 10.4372 21.4559C10.6945 21.3986 10.9545 21.3693 11.2119 21.3693C12.4252 21.3693 13.5999 21.9959 14.2892 23.0639C14.4785 23.3559 14.7412 23.5959 15.0705 23.7799C15.6559 24.1053 16.4132 24.1053 17.0012 23.7799C17.3305 23.5973 17.5932 23.3559 17.7812 23.0639C18.6185 21.7693 20.1692 21.1213 21.6319 21.4546H21.6292ZM28.2919 25.3479L25.5745 22.6306C25.0012 23.2559 24.2759 23.7386 23.4439 23.9759C22.7039 24.1866 21.9639 24.2186 21.2399 24.0866L25.3959 28.2426V26.6813C25.3959 25.9453 25.9932 25.3479 26.7292 25.3479H28.2919Z" fill="#B57B42"/>
</g>
<defs>
<clipPath id="clip0_100_4768">
<rect width="32" height="32" fill="white"/>
</clipPath>
</defs>
</svg>
