<svg width="32" height="32" viewBox="0 0 32 32" fill="none" xmlns="http://www.w3.org/2000/svg">
<path d="M25.3333 6.66665H22.532C21.912 3.62798 19.22 1.33331 16 1.33331H6.66667C2.99067 1.33331 0 4.32398 0 7.99998V20C0 22.508 1.74533 24.6026 4.08133 25.1693C4.03067 25.4413 4 25.7186 4 26C4 28.5733 6.09333 30.6666 8.66667 30.6666C11.24 30.6666 13.3333 28.5733 13.3333 26C13.3333 25.7746 13.3107 25.5533 13.2787 25.3333H18.7213C18.6893 25.5533 18.6667 25.7746 18.6667 26C18.6667 28.5733 20.76 30.6666 23.3333 30.6666C25.9067 30.6666 28 28.5733 28 26C28 25.7186 27.9693 25.4413 27.9187 25.1693C30.2547 24.6026 32 22.508 32 20V13.3333C32 9.65731 29.0093 6.66665 25.3333 6.66665ZM29.3333 13.3333V14.6666H22.6667V9.33331H25.3333C27.5387 9.33331 29.3333 11.128 29.3333 13.3333ZM2.66667 20V7.99998C2.66667 5.79465 4.46133 3.99998 6.66667 3.99998H16C18.2053 3.99998 20 5.79465 20 7.99998V22.6666H5.33333C3.86267 22.6666 2.66667 21.4706 2.66667 20ZM10.6667 26C10.6667 27.1026 9.76933 28 8.66667 28C7.564 28 6.66667 27.1026 6.66667 26C6.66667 25.7466 6.71867 25.5253 6.79067 25.3333H10.5427C10.6147 25.5253 10.6667 25.7466 10.6667 26ZM23.3333 28C22.2307 28 21.3333 27.1026 21.3333 26C21.3333 25.7466 21.3853 25.5253 21.4573 25.3333H25.2093C25.2813 25.5253 25.3333 25.7466 25.3333 26C25.3333 27.1026 24.436 28 23.3333 28ZM26.6667 22.6666H22.6667V17.3333H29.3333V20C29.3333 21.4706 28.1373 22.6666 26.6667 22.6666ZM5.724 14.4106C5.20267 13.8893 5.20267 13.0466 5.724 12.5253C6.24533 12.004 7.088 12.004 7.60933 12.5253L9.47867 14.3946C9.94 14.856 10.692 14.856 11.1533 14.3946L15.0453 10.4013C15.56 9.87465 16.4067 9.86531 16.9307 10.3773C17.4587 10.892 17.468 11.736 16.9547 12.264L13.0507 16.268C12.2933 17.0253 11.3013 17.404 10.312 17.404C9.32267 17.404 8.34133 17.0293 7.59333 16.28L5.724 14.4106Z" fill="#B57B42"/>
</svg>
