<svg width="18" height="18" viewBox="0 0 18 18" fill="none" xmlns="http://www.w3.org/2000/svg">
<path d="M13.5 18H4.5C3.5058 17.9988 2.55267 17.6033 1.84966 16.9003C1.14666 16.1973 0.751191 15.2442 0.75 14.25V3.75C0.751191 2.7558 1.14666 1.80267 1.84966 1.09966C2.55267 0.396661 3.5058 0.00119089 4.5 0L13.5 0C14.4942 0.00119089 15.4473 0.396661 16.1503 1.09966C16.8533 1.80267 17.2488 2.7558 17.25 3.75V14.25C17.2488 15.2442 16.8533 16.1973 16.1503 16.9003C15.4473 17.6033 14.4942 17.9988 13.5 18ZM4.5 1.5C3.90326 1.5 3.33097 1.73705 2.90901 2.15901C2.48705 2.58097 2.25 3.15326 2.25 3.75V14.25C2.25 14.8467 2.48705 15.419 2.90901 15.841C3.33097 16.2629 3.90326 16.5 4.5 16.5H13.5C14.0967 16.5 14.669 16.2629 15.091 15.841C15.5129 15.419 15.75 14.8467 15.75 14.25V3.75C15.75 3.15326 15.5129 2.58097 15.091 2.15901C14.669 1.73705 14.0967 1.5 13.5 1.5H4.5ZM12 7.5H6C5.40326 7.5 4.83097 7.26295 4.40901 6.84099C3.98705 6.41903 3.75 5.84674 3.75 5.25C3.75 4.65326 3.98705 4.08097 4.40901 3.65901C4.83097 3.23705 5.40326 3 6 3H12C12.5967 3 13.169 3.23705 13.591 3.65901C14.0129 4.08097 14.25 4.65326 14.25 5.25C14.25 5.84674 14.0129 6.41903 13.591 6.84099C13.169 7.26295 12.5967 7.5 12 7.5ZM6 4.5C5.80109 4.5 5.61032 4.57902 5.46967 4.71967C5.32902 4.86032 5.25 5.05109 5.25 5.25C5.25 5.44891 5.32902 5.63968 5.46967 5.78033C5.61032 5.92098 5.80109 6 6 6H12C12.1989 6 12.3897 5.92098 12.5303 5.78033C12.671 5.63968 12.75 5.44891 12.75 5.25C12.75 5.05109 12.671 4.86032 12.5303 4.71967C12.3897 4.57902 12.1989 4.5 12 4.5H6ZM4.5 9.75C4.35166 9.75 4.20666 9.79399 4.08332 9.8764C3.95999 9.95881 3.86386 10.0759 3.80709 10.213C3.75032 10.35 3.73547 10.5008 3.76441 10.6463C3.79335 10.7918 3.86478 10.9254 3.96967 11.0303C4.07456 11.1352 4.2082 11.2066 4.35368 11.2356C4.49917 11.2645 4.64997 11.2497 4.78701 11.1929C4.92406 11.1361 5.04119 11.04 5.1236 10.9167C5.20601 10.7933 5.25 10.6483 5.25 10.5C5.25 10.3011 5.17098 10.1103 5.03033 9.96967C4.88968 9.82902 4.69891 9.75 4.5 9.75ZM7.5 9.75C7.35166 9.75 7.20666 9.79399 7.08332 9.8764C6.95999 9.95881 6.86386 10.0759 6.80709 10.213C6.75032 10.35 6.73547 10.5008 6.76441 10.6463C6.79335 10.7918 6.86478 10.9254 6.96967 11.0303C7.07456 11.1352 7.2082 11.2066 7.35368 11.2356C7.49917 11.2645 7.64997 11.2497 7.78701 11.1929C7.92406 11.1361 8.04119 11.04 8.1236 10.9167C8.20601 10.7933 8.25 10.6483 8.25 10.5C8.25 10.3011 8.17098 10.1103 8.03033 9.96967C7.88968 9.82902 7.69891 9.75 7.5 9.75ZM10.5 9.75C10.3517 9.75 10.2067 9.79399 10.0833 9.8764C9.95998 9.95881 9.86386 10.0759 9.80709 10.213C9.75032 10.35 9.73547 10.5008 9.76441 10.6463C9.79335 10.7918 9.86478 10.9254 9.96967 11.0303C10.0746 11.1352 10.2082 11.2066 10.3537 11.2356C10.4992 11.2645 10.65 11.2497 10.787 11.1929C10.9241 11.1361 11.0412 11.04 11.1236 10.9167C11.206 10.7933 11.25 10.6483 11.25 10.5C11.25 10.3011 11.171 10.1103 11.0303 9.96967C10.8897 9.82902 10.6989 9.75 10.5 9.75ZM4.5 12.75C4.35166 12.75 4.20666 12.794 4.08332 12.8764C3.95999 12.9588 3.86386 13.0759 3.80709 13.213C3.75032 13.35 3.73547 13.5008 3.76441 13.6463C3.79335 13.7918 3.86478 13.9254 3.96967 14.0303C4.07456 14.1352 4.2082 14.2066 4.35368 14.2356C4.49917 14.2645 4.64997 14.2497 4.78701 14.1929C4.92406 14.1361 5.04119 14.04 5.1236 13.9167C5.20601 13.7933 5.25 13.6483 5.25 13.5C5.25 13.3011 5.17098 13.1103 5.03033 12.9697C4.88968 12.829 4.69891 12.75 4.5 12.75ZM7.5 12.75C7.35166 12.75 7.20666 12.794 7.08332 12.8764C6.95999 12.9588 6.86386 13.0759 6.80709 13.213C6.75032 13.35 6.73547 13.5008 6.76441 13.6463C6.79335 13.7918 6.86478 13.9254 6.96967 14.0303C7.07456 14.1352 7.2082 14.2066 7.35368 14.2356C7.49917 14.2645 7.64997 14.2497 7.78701 14.1929C7.92406 14.1361 8.04119 14.04 8.1236 13.9167C8.20601 13.7933 8.25 13.6483 8.25 13.5C8.25 13.3011 8.17098 13.1103 8.03033 12.9697C7.88968 12.829 7.69891 12.75 7.5 12.75ZM13.5 9.75C13.3517 9.75 13.2067 9.79399 13.0833 9.8764C12.96 9.95881 12.8639 10.0759 12.8071 10.213C12.7503 10.35 12.7355 10.5008 12.7644 10.6463C12.7934 10.7918 12.8648 10.9254 12.9697 11.0303C13.0746 11.1352 13.2082 11.2066 13.3537 11.2356C13.4992 11.2645 13.65 11.2497 13.787 11.1929C13.9241 11.1361 14.0412 11.04 14.1236 10.9167C14.206 10.7933 14.25 10.6483 14.25 10.5C14.25 10.3011 14.171 10.1103 14.0303 9.96967C13.8897 9.82902 13.6989 9.75 13.5 9.75ZM14.25 13.5C14.25 13.3011 14.171 13.1103 14.0303 12.9697C13.8897 12.829 13.6989 12.75 13.5 12.75H10.5C10.3011 12.75 10.1103 12.829 9.96967 12.9697C9.82902 13.1103 9.75 13.3011 9.75 13.5C9.75 13.6989 9.82902 13.8897 9.96967 14.0303C10.1103 14.171 10.3011 14.25 10.5 14.25H13.5C13.6989 14.25 13.8897 14.171 14.0303 14.0303C14.171 13.8897 14.25 13.6989 14.25 13.5Z" fill="white"/>
</svg>
