<svg width="32" height="32" viewBox="0 0 32 32" fill="none" xmlns="http://www.w3.org/2000/svg">
<path d="M20.0893 21.3307C28.8747 21.2987 32 16.6507 32 12.6667C32 10.432 30.42 8.564 28.32 8.10933C28.7347 6.93333 29.048 5.80133 29.256 4.79067C29.496 3.62267 29.1973 2.42 28.4387 1.48933C27.6667 0.542667 26.5227 0 25.3027 0H6.69733C5.476 0 4.33333 0.542667 3.56133 1.48933C2.80267 2.41867 2.504 3.62267 2.744 4.79067C2.952 5.80267 3.26533 6.93333 3.68 8.10933C1.58 8.564 0 10.432 0 12.6667C0 16.6507 3.12533 21.2973 11.9107 21.3307C11.9507 21.612 12 21.892 12 22.1827V26.6667C12 29.1013 9.952 29.3227 9.33333 29.3333H6.66667V32H25.3333V29.3333H22.6773C22.048 29.3227 20 29.1013 20 26.6667V22.1827C20 21.892 20.0493 21.612 20.0893 21.3307ZM27.3333 10.6667C28.436 10.6667 29.3333 11.564 29.3333 12.6667C29.3333 15.3973 27.1587 18.3 21.168 18.6333C21.408 18.3227 21.6773 18.04 21.98 17.7987C24.2707 15.968 26.012 13.3307 27.2587 10.6667H27.3333ZM2.66667 12.6667C2.66667 11.564 3.564 10.6667 4.66667 10.6667H4.74267C5.98933 13.3307 7.72933 15.968 10.02 17.7987C10.3227 18.04 10.5933 18.3227 10.832 18.6333C4.84133 18.3 2.66667 15.3973 2.66667 12.6667ZM17.3333 22.1827V26.6667C17.3333 27.7413 17.588 28.612 17.9827 29.3333H14.0187C14.412 28.612 14.668 27.7413 14.668 26.6667V22.1827C14.668 19.588 13.5827 17.2307 11.6867 15.7147C8.40267 13.0893 6.14133 8.068 5.35867 4.25333C5.252 3.73333 5.484 3.35467 5.62933 3.17333C5.89333 2.85067 6.28267 2.66533 6.7 2.66533H25.304C25.72 2.66533 26.1093 2.85067 26.3733 3.17333C26.52 3.35467 26.752 3.73467 26.6453 4.25333C25.8627 8.06533 23.6027 13.088 20.3173 15.7147C18.4227 17.2293 17.336 19.5853 17.336 22.1827H17.3333ZM16.6987 5.33333L17.568 8.00667H20.38L20.78 9.23067L18.5053 10.884L19.3747 13.5587L18.3333 14.3147L16.06 12.6667L13.78 14.316L12.7387 13.56L13.608 10.8853L11.3333 9.232L11.7333 8.008H14.5427L15.412 5.34133L16.6987 5.33333Z" fill="#B57B42"/>
</svg>
