<svg width="27" height="32" viewBox="0 0 27 32" fill="none" xmlns="http://www.w3.org/2000/svg">
<path d="M20.6667 0H6C2.692 0 0 2.692 0 6V30.6667C0 31.404 0.597333 32 1.33333 32C2.06933 32 2.66667 31.404 2.66667 30.6667V26.6667H24V30.6667C24 31.404 24.5973 32 25.3333 32C26.0693 32 26.6667 31.404 26.6667 30.6667V6C26.6667 2.692 23.9747 0 20.6667 0ZM2.66667 16V10.6667H12V12C12 12.736 12.5973 13.3333 13.3333 13.3333C14.0693 13.3333 14.6667 12.736 14.6667 12V10.6667H24V16H2.66667ZM6 2.66667H12V4C12 4.736 12.5973 5.33333 13.3333 5.33333C14.0693 5.33333 14.6667 4.736 14.6667 4V2.66667H20.6667C22.504 2.66667 24 4.16267 24 6V8H2.66667V6C2.66667 4.16267 4.16267 2.66667 6 2.66667ZM2.66667 24V18.6667H12V20C12 20.7373 12.5973 21.3333 13.3333 21.3333C14.0693 21.3333 14.6667 20.7373 14.6667 20V18.6667H24V24H2.66667Z" fill="#B57B42"/>
</svg>
