<svg width="32" height="32" viewBox="0 0 32 32" fill="none" xmlns="http://www.w3.org/2000/svg">
<path d="M14.6667 20C14.6667 20.736 14.0693 21.3333 13.3333 21.3333C12.5973 21.3333 12 20.736 12 20H11.6427C10.2187 20 8.892 19.2347 8.17867 18.0013C7.81067 17.364 8.028 16.5493 8.66533 16.18C9.30133 15.8107 10.1187 16.028 10.4867 16.6667C10.724 17.0773 11.168 17.3333 11.6427 17.3333H14.6667C15.4013 17.3333 16 16.736 16 16C16 15.496 15.6387 15.0693 15.1413 14.9867L11.0853 14.3107C9.29733 14.0133 7.99867 12.48 7.99867 10.6667C7.99867 8.46133 9.79333 6.66667 11.9987 6.66667C11.9987 5.93067 12.596 5.33333 13.332 5.33333C14.068 5.33333 14.6653 5.93067 14.6653 6.66667H15.0227C16.4467 6.66667 17.7733 7.432 18.4867 8.66533C18.856 9.30267 18.6373 10.1173 18.0013 10.4867C17.3613 10.856 16.548 10.6373 16.1787 10C15.9413 9.58933 15.4973 9.33333 15.0227 9.33333H11.9987C11.264 9.33333 10.6653 9.93067 10.6653 10.6667C10.6653 11.1707 11.0267 11.5973 11.524 11.68L15.58 12.356C17.368 12.6533 18.6667 14.1867 18.6667 16C18.6667 18.2053 16.872 20 14.6667 20ZM12.1467 23.9347C6.74267 23.3373 2.66667 18.78 2.66667 13.3333C2.66667 7.452 7.452 2.66667 13.3333 2.66667C14.9987 2.66667 16.5933 3.04 18.0733 3.77467C18.736 4.104 19.5347 3.83333 19.8613 3.17333C20.1893 2.51467 19.92 1.71333 19.2613 1.38667C17.4093 0.466667 15.416 0 13.3347 0C5.98133 0 0 5.98133 0 13.3333C0 20.1413 5.244 25.8467 12.0013 26.5933C12.672 26.5933 13.2493 26.0893 13.3253 25.4067C13.4067 24.6747 12.8787 24.016 12.1467 23.9347ZM31.6093 24.232C31.088 23.7107 30.2453 23.7107 29.724 24.232L25.3333 28.6227V1.33333C25.3333 0.597333 24.7373 0 24 0C23.2627 0 22.6667 0.597333 22.6667 1.33333V28.4893L18.276 24.0987C17.7547 23.5773 16.912 23.5773 16.3907 24.0987C15.8693 24.62 15.8693 25.4627 16.3907 25.984L21.2387 30.832C22.0187 31.6107 23.044 32 24.0667 32C25.0893 32 26.116 31.6107 26.896 30.8307L31.6093 26.116C32.1307 25.5947 32.1307 24.752 31.6093 24.232Z" fill="#B57B42"/>
</svg>
