<svg width="32" height="32" viewBox="0 0 32 32" fill="none" xmlns="http://www.w3.org/2000/svg">
<path d="M29.333 1.6106e-05H26.437C25.9116 -0.00148053 25.391 0.101343 24.9056 0.302526C24.4201 0.503709 23.9794 0.79925 23.609 1.17202L12.461 12.3187C10.3267 11.768 8.07056 11.9343 6.04006 12.792C4.00956 13.6497 2.31738 15.1512 1.22415 17.0652C0.130927 18.9792 -0.30269 21.1995 -0.00990736 23.3842C0.282875 25.5689 1.28582 27.5967 2.84443 29.1553C4.40304 30.7139 6.43086 31.7168 8.61554 32.0096C10.8002 32.3024 13.0206 31.8688 14.9346 30.7756C16.8486 29.6823 18.35 27.9902 19.2077 25.9597C20.0654 23.9292 20.2317 21.673 19.681 19.5387L21.333 17.8867V14.6667H25.333V10.6667H28.5517L30.8277 8.39068C31.2003 8.01992 31.4958 7.57898 31.6969 7.09334C31.8981 6.6077 32.001 6.087 31.9997 5.56135V2.66668C31.9997 1.95944 31.7188 1.28116 31.2187 0.781065C30.7186 0.280968 30.0403 1.6106e-05 29.333 1.6106e-05ZM29.333 5.56135C29.3332 5.73666 29.2987 5.91027 29.2317 6.07225C29.1647 6.23423 29.0664 6.38141 28.9424 6.50535L27.4477 8.00002H22.6664V12H18.6664V16.78L16.6064 18.84C17.0755 19.828 17.3235 20.9064 17.333 22C17.333 23.4504 16.9029 24.8682 16.0971 26.0742C15.2914 27.2802 14.146 28.2201 12.8061 28.7751C11.4661 29.3302 9.99157 29.4754 8.56904 29.1924C7.14651 28.9095 5.83984 28.2111 4.81425 27.1855C3.78867 26.1599 3.09024 24.8532 2.80728 23.4307C2.52432 22.0082 2.66954 20.5337 3.22459 19.1937C3.77963 17.8537 4.71956 16.7084 5.92552 15.9026C7.13148 15.0968 8.54931 14.6667 9.9997 14.6667C11.1008 14.5947 12.1989 14.8469 13.1584 15.392L25.4944 3.05735C25.7451 2.80839 26.0837 2.66806 26.437 2.66668H29.333V5.56135ZM6.66637 24C6.66637 24.2637 6.74457 24.5215 6.89108 24.7408C7.03759 24.96 7.24582 25.1309 7.48946 25.2319C7.73309 25.3328 8.00118 25.3592 8.25982 25.3077C8.51847 25.2563 8.75604 25.1293 8.94251 24.9428C9.12898 24.7564 9.25597 24.5188 9.30742 24.2601C9.35886 24.0015 9.33246 23.7334 9.23154 23.4898C9.13063 23.2461 8.95973 23.0379 8.74046 22.8914C8.5212 22.7449 8.26341 22.6667 7.9997 22.6667C7.64608 22.6667 7.30694 22.8072 7.0569 23.0572C6.80685 23.3073 6.66637 23.6464 6.66637 24Z" fill="#B57B42"/>
</svg>
