<svg width="32" height="32" viewBox="0 0 32 32" fill="none" xmlns="http://www.w3.org/2000/svg">
<path d="M16 29.3333H6.66667C4.46133 29.3333 2.66667 27.5387 2.66667 25.3333V6.66667C2.66667 4.46133 4.46133 2.66667 6.66667 2.66667H12.6867C12.904 2.66667 13.12 2.67733 13.3333 2.69733V9.33333C13.3333 11.5387 15.128 13.3333 17.3333 13.3333H25.084C25.496 13.3333 25.8853 13.1427 26.1373 12.8173C26.3893 12.492 26.4773 12.068 26.376 11.6693C25.9613 10.048 25.1173 8.564 23.932 7.38L19.2867 2.73467C17.524 0.972 15.18 0 12.6867 0H6.66667C2.99067 0 0 2.99067 0 6.66667V25.3333C0 29.0093 2.99067 32 6.66667 32H16C16.7373 32 17.3333 31.404 17.3333 30.6667C17.3333 29.9293 16.7373 29.3333 16 29.3333ZM16 3.54533C16.5067 3.836 16.976 4.196 17.4013 4.62L22.0467 9.26533C22.4653 9.684 22.8253 10.156 23.1187 10.6667H17.3333C16.5973 10.6667 16 10.0693 16 9.33333V3.54533ZM14.6667 24C14.6667 24.7373 14.0707 25.3333 13.3333 25.3333H6.66667C5.92933 25.3333 5.33333 24.7373 5.33333 24C5.33333 23.2627 5.92933 22.6667 6.66667 22.6667H13.3333C14.0707 22.6667 14.6667 23.2627 14.6667 24ZM14.6667 18.6667C14.6667 19.404 14.0707 20 13.3333 20H6.66667C5.92933 20 5.33333 19.404 5.33333 18.6667C5.33333 17.9293 5.92933 17.3333 6.66667 17.3333H13.3333C14.0707 17.3333 14.6667 17.9293 14.6667 18.6667ZM30.1733 16.42L25.0867 14.7333C24.816 14.6427 24.5187 14.6427 24.248 14.7333L19.1613 16.42C18.0693 16.7813 17.3347 17.7987 17.3347 18.948V23.38C17.3347 28.14 22.288 30.984 23.8013 31.74C23.8013 31.74 24.2093 32.0187 24.6693 32.0187C25.1293 32.0187 25.4453 31.8107 25.4453 31.8107C26.9827 31.192 32.0013 28.7547 32.0013 23.3813V18.9493C32.0013 17.8 31.2667 16.7827 30.1747 16.4213L30.1733 16.42ZM29.3333 23.3813C29.3333 26.8227 26.1027 28.6133 24.728 29.22C23.5093 28.5667 20 26.4227 20 23.3813V18.952L24.6667 17.4053L29.3333 18.9493V23.3813Z" fill="#B57B42"/>
</svg>
