<svg width="32" height="30" viewBox="0 0 32 30" fill="none" xmlns="http://www.w3.org/2000/svg">
<path d="M31.5213 13.012L30.1773 8.98C29.4493 6.79867 27.4173 5.33333 25.1173 5.33333H22.532C21.912 2.29467 19.22 1.04282e-06 16 1.04282e-06H5.95333C3.58133 -0.00133229 1.368 1.276 0.18 3.33067C-0.189333 3.96933 0.0293334 4.784 0.665333 5.152C1.304 5.52133 2.11867 5.30267 2.48667 4.66667C3.20133 3.432 4.52933 2.66533 5.95333 2.66533H16C18.2053 2.66533 20 4.46 20 6.66533V21.332H2.66667V19.9987C2.66667 19.2613 2.07067 18.6653 1.33333 18.6653C0.596 18.6653 0 19.2613 0 19.9987V22.6653C0 23.4027 0.596 23.9987 1.33333 23.9987H2.66667V24.6653C2.66667 27.2387 4.76 29.332 7.33333 29.332C9.90667 29.332 12 27.2387 12 24.6653V23.9987H20V24.6653C20 27.2387 22.0933 29.332 24.6667 29.332C27.24 29.332 29.3333 27.2387 29.3333 24.6653V23.2573C30.92 22.332 32 20.6307 32 18.6653V15.964C32 14.9587 31.8387 13.9653 31.5213 13.012ZM27.648 9.82267L28.8187 13.332H22.668V7.99867H25.1187C26.268 7.99867 27.284 8.732 27.648 9.82267ZM9.33333 24.6653C9.33333 25.768 8.436 26.6653 7.33333 26.6653C6.23067 26.6653 5.33333 25.768 5.33333 24.6653V23.9987H9.33333V24.6653ZM26.6667 24.6653C26.6667 25.768 25.7693 26.6653 24.6667 26.6653C23.564 26.6653 22.6667 25.768 22.6667 24.6653V23.9987H26.6667V24.6653ZM26.6667 21.332H22.6667V15.9987H29.3333V18.6653C29.3333 20.136 28.1373 21.332 26.6667 21.332ZM0 15.1653V8.832C0 8.372 0.373333 7.99867 0.833333 7.99867H2.5C2.96 7.99867 3.33333 8.372 3.33333 8.832C3.33333 9.292 2.96 9.66533 2.5 9.66533H1.66933L1.676 11.3347H2.49867C2.96 11.332 3.33333 11.7053 3.33333 12.1667C3.33333 12.6267 2.96133 13 2.50133 13H1.66667V15.1653C1.66667 15.6253 1.29333 15.9987 0.833333 15.9987C0.373333 15.9987 0 15.6253 0 15.1653ZM13.1667 9.66533H12.336L12.3427 11.2427H13.1653C13.6267 11.24 14 11.6133 14 12.0747C14 12.5347 13.628 12.908 13.168 12.908H12.3413L12.336 14.332H13.1667C13.6267 14.332 14 14.7053 14 15.1653C14 15.6253 13.6267 15.9987 13.1667 15.9987H11.5C11.04 15.9987 10.6667 15.6253 10.6667 15.1653V8.832C10.6667 8.372 11.04 7.99867 11.5 7.99867H13.1667C13.6267 7.99867 14 8.372 14 8.832C14 9.292 13.6267 9.66533 13.1667 9.66533ZM17.8333 9.66533H17.0027L17.0093 11.2427H17.832C18.2933 11.24 18.6667 11.6133 18.6667 12.0747C18.6667 12.5347 18.2947 12.908 17.8347 12.908H17.008L17.0027 14.332H17.8333C18.2933 14.332 18.6667 14.7053 18.6667 15.1653C18.6667 15.6253 18.2933 15.9987 17.8333 15.9987H16.1667C15.7067 15.9987 15.3333 15.6253 15.3333 15.1653V8.832C15.3333 8.372 15.7067 7.99867 16.1667 7.99867H17.8333C18.2933 7.99867 18.6667 8.372 18.6667 8.832C18.6667 9.292 18.2933 9.66533 17.8333 9.66533ZM6.65067 7.99867H5.496C5.03733 7.99867 4.66533 8.37067 4.66533 8.82933V15.1693C4.66533 15.628 5.03733 16 5.496 16H5.50267C5.96133 16 6.33333 15.628 6.33333 15.1693V13.2973L6.65067 13.2933C6.812 13.2933 6.968 13.2733 7.12133 13.2467L7.748 15.4027C7.85067 15.7573 8.176 16.0013 8.54533 16.0013C9.10267 16.0013 9.50133 15.4627 9.34 14.9293L8.59067 12.4653C9.048 11.9907 9.33333 11.352 9.33333 10.6467C9.33333 9.188 8.13067 7.99867 6.65067 7.99867ZM6.65067 11.6253L6.34267 11.6293L6.336 9.66533H6.65067C7.20133 9.66533 7.66667 10.1133 7.66667 10.6453C7.66667 11.1773 7.20133 11.6253 6.65067 11.6253Z" fill="#B57B42"/>
</svg>
