<svg width="32" height="32" viewBox="0 0 32 32" fill="none" xmlns="http://www.w3.org/2000/svg">
<path d="M16 32C13.832 32 11.7867 31.048 10.3893 29.388C8.336 29.6227 6.22 28.848 4.68667 27.3147C3.15467 25.7813 2.38133 23.6613 2.56667 21.4987C0.952 20.2133 0 18.168 0 16C0 13.832 0.952 11.7867 2.61333 10.3893C2.38 8.34 3.15333 6.22 4.68667 4.68667C6.22 3.15333 8.336 2.376 10.5013 2.56667C11.7867 0.953333 13.832 0 16 0C18.168 0 20.2133 0.952 21.6107 2.612C23.6667 2.38133 25.78 3.152 27.3133 4.68533C28.8453 6.21867 29.6187 8.33867 29.4333 10.5013C31.048 11.7867 32 13.832 32 16C32 18.168 31.048 20.2133 29.3867 21.6107C29.62 23.66 28.8467 25.78 27.3133 27.3133C25.7787 28.8467 23.6587 29.6147 21.4987 29.4333C20.2133 31.0467 18.168 32 16 32ZM10.4973 26.768C11.2453 26.768 11.9387 27.0893 12.428 27.6693C13.3187 28.7267 14.62 29.3333 16 29.3333C17.38 29.3333 18.6813 28.7267 19.572 27.6693C20.1093 27.0307 20.892 26.708 21.7267 26.776C23.1053 26.892 24.452 26.4027 25.428 25.4267C26.4027 24.452 26.8947 23.1027 26.7773 21.7253C26.7053 20.8933 27.0307 20.108 27.6707 19.5693C28.7267 18.68 29.3333 17.3773 29.3333 15.9987C29.3333 14.62 28.7267 13.3173 27.6707 12.428C27.032 11.8907 26.7053 11.104 26.7773 10.272C26.8947 8.89467 26.404 7.54533 25.428 6.57067C24.452 5.596 23.0973 5.112 21.728 5.22133C20.8933 5.296 20.1093 4.96667 19.572 4.32933C18.6813 3.272 17.38 2.66533 16 2.66533C14.62 2.66533 13.3187 3.272 12.428 4.32933C11.8893 4.968 11.104 5.288 10.2733 5.22267C8.888 5.10267 7.548 5.596 6.572 6.572C5.59733 7.54667 5.10533 8.896 5.22267 10.2733C5.29467 11.1053 4.96933 11.8907 4.32933 12.4293C3.27333 13.3187 2.66667 14.6213 2.66667 16C2.66667 17.3787 3.27333 18.6813 4.32933 19.5707C4.968 20.108 5.29467 20.8947 5.22267 21.7267C5.10533 23.104 5.596 24.4533 6.572 25.428C7.548 26.4027 8.90933 26.888 10.272 26.7773C10.348 26.7707 10.4227 26.768 10.4973 26.768ZM17.068 20.18L23.3867 14.0893C23.916 13.5787 23.932 12.7333 23.42 12.204C22.9093 11.6747 22.0653 11.6587 21.5347 12.1693L15.1987 18.2773C14.6773 18.7987 13.836 18.7987 13.2787 18.244L10.2413 15.4213C9.70533 14.9213 8.86 14.9507 8.35733 15.4907C7.856 16.0293 7.88667 16.8733 8.42667 17.3747L11.4293 20.164C12.2107 20.9453 13.2387 21.336 14.264 21.336C15.284 21.336 16.2987 20.9507 17.0693 20.1813L17.068 20.18Z" fill="#B57B42"/>
</svg>
