<svg width="24" height="24" viewBox="0 0 24 24" fill="none" xmlns="http://www.w3.org/2000/svg">
<path d="M7 7C7 6.448 8.119 6 9.5 6C10.881 6 12 6.448 12 7C12 7.552 10.881 8 9.5 8C8.119 8 7 7.552 7 7ZM24 15.5V18.5C24 20.981 21.981 23 19.5 23H9.381C2.821 23 0 20.112 0 17.286V6.81C0 6.768 0.019 6.732 0.024 6.691C0.272 3.477 4.338 1 9.5 1C14.827 1 19 3.636 19 7V11H19.5C21.981 11 24 13.019 24 15.5ZM2 7C2 9.168 5.435 11 9.5 11C13.565 11 17 9.168 17 7C17 4.832 13.565 3 9.5 3C5.435 3 2 4.832 2 7ZM22 15.5C22 14.121 20.879 13 19.5 13H9.5C6.415 13 3.725 12.113 2 10.716V17.286C2 18.7 3.966 20.242 7 20.79V16.999C7 16.446 7.447 15.999 8 15.999C8.553 15.999 9 16.446 9 16.999V20.988C9.127 20.991 9.251 20.999 9.381 20.999H12V16.999C12 16.446 12.447 15.999 13 15.999C13.553 15.999 14 16.446 14 16.999V20.999H17V16.999C17 16.446 17.447 15.999 18 15.999C18.553 15.999 19 16.446 19 16.999V20.999H19.5C20.879 20.999 22 19.878 22 18.499V15.499V15.5Z" fill="#B57B42"/>
</svg>
