<svg width="24" height="24" viewBox="0 0 24 24" fill="none" xmlns="http://www.w3.org/2000/svg">
<path d="M20.484 4.84002L13.984 1.12502C12.759 0.426019 11.239 0.426019 10.016 1.12502L3.516 4.84002C2.273 5.55002 1.5 6.88102 1.5 8.31302V15.688C1.5 17.12 2.272 18.451 3.516 19.161L10.016 22.876C10.628 23.226 11.314 23.4 12 23.4C12.686 23.4 13.372 23.225 13.984 22.876L20.484 19.161C21.727 18.45 22.5 17.12 22.5 15.688V8.31302C22.5 6.88102 21.728 5.55102 20.484 4.84002ZM11.007 2.86102C11.62 2.51202 12.381 2.51202 12.991 2.86102L19.483 6.57102L16.927 8.03202C16.788 7.91402 16.653 7.79102 16.493 7.69902L13.492 5.97602C12.57 5.44702 11.428 5.44702 10.505 5.97602L7.505 7.69902C7.344 7.79102 7.209 7.91402 7.07 8.03202L4.514 6.57102L11.006 2.86102H11.007ZM7.999 10.866L10.999 12.58V16.004L8.503 14.578C8.192 14.4 7.999 14.067 7.999 13.71V10.866ZM11.999 10.849L9.011 9.14102L11.501 7.71102C11.654 7.62302 11.827 7.57902 11.999 7.57902C12.171 7.57902 12.343 7.62302 12.497 7.71102L14.988 9.14102L12 10.849H11.999ZM12.999 12.581L15.999 10.867V13.711C15.999 14.068 15.806 14.401 15.495 14.579L12.999 16.005V12.581ZM4.507 17.425C3.885 17.07 3.499 16.404 3.499 15.689V8.31402C3.499 8.30802 3.501 8.30302 3.501 8.29802L6.071 9.76602C6.038 9.94302 5.999 10.119 5.999 10.303V13.712C5.999 14.785 6.578 15.783 7.511 16.316L10.511 18.03C10.666 18.119 10.834 18.171 11 18.229V21.135L4.507 17.425ZM20.499 15.689C20.499 16.405 20.113 17.07 19.491 17.425L12.999 21.136V18.229C13.164 18.17 13.332 18.118 13.487 18.03L16.488 16.316C17.42 15.783 17.999 14.785 17.999 13.712V10.303C17.999 10.12 17.96 9.94402 17.927 9.76602L20.497 8.29802C20.497 8.30402 20.499 8.30902 20.499 8.31402V15.689Z" fill="#B57B42"/>
</svg>
