<svg width="24" height="24" viewBox="0 0 24 24" fill="none" xmlns="http://www.w3.org/2000/svg">
<g clip-path="url(#clip0_100_5379)">
<path d="M18.581 2.13994L12.316 0.0509356C12.1109 -0.0173854 11.8891 -0.0173854 11.684 0.0509356L5.419 2.13994C4.42291 2.47082 3.55642 3.10719 2.94265 3.95865C2.32887 4.8101 1.99904 5.83332 2 6.88294V11.9999C2 19.5629 11.2 23.7399 11.594 23.9139C11.7218 23.9707 11.8601 24.0001 12 24.0001C12.1399 24.0001 12.2782 23.9707 12.406 23.9139C12.8 23.7399 22 19.5629 22 11.9999V6.88294C22.001 5.83332 21.6711 4.8101 21.0574 3.95865C20.4436 3.10719 19.5771 2.47082 18.581 2.13994ZM20 11.9999C20 17.4549 13.681 21.0329 12 21.8889C10.317 21.0359 4 17.4689 4 11.9999V6.88294C4.00006 6.25321 4.19828 5.63948 4.56657 5.12868C4.93486 4.61788 5.45455 4.23593 6.052 4.03694L12 2.05394L17.948 4.03694C18.5455 4.23593 19.0651 4.61788 19.4334 5.12868C19.8017 5.63948 19.9999 6.25321 20 6.88294V11.9999Z" fill="#B57B42"/>
<path d="M15.2998 8.29995L11.1118 12.5L8.86779 10.16C8.77774 10.0615 8.66889 9.98205 8.54765 9.9263C8.42642 9.87055 8.29526 9.83963 8.16189 9.83536C8.02852 9.83109 7.89565 9.85356 7.7711 9.90143C7.64655 9.94931 7.53284 10.0216 7.43666 10.1141C7.34049 10.2066 7.26381 10.3174 7.21112 10.44C7.15844 10.5626 7.13083 10.6945 7.12991 10.828C7.12899 10.9614 7.15478 11.0937 7.20577 11.217C7.25676 11.3403 7.33191 11.4521 7.42679 11.546L9.73279 13.946C9.90477 14.1317 10.1126 14.2806 10.3438 14.3838C10.575 14.4869 10.8247 14.5421 11.0778 14.546H11.1108C11.3588 14.5468 11.6046 14.4983 11.8338 14.4034C12.0629 14.3084 12.271 14.1689 12.4458 13.993L16.7178 9.72095C16.8111 9.62785 16.8851 9.51727 16.9357 9.39555C16.9863 9.27382 17.0124 9.14333 17.0125 9.01151C17.0127 8.8797 16.9868 8.74915 16.9365 8.62732C16.8862 8.50549 16.8124 8.39476 16.7193 8.30145C16.6262 8.20815 16.5156 8.1341 16.3939 8.08353C16.2722 8.03295 16.1417 8.00685 16.0099 8.00671C15.878 8.00658 15.7475 8.0324 15.6257 8.08271C15.5038 8.13303 15.3931 8.20685 15.2998 8.29995Z" fill="#B57B42"/>
</g>
<defs>
<clipPath id="clip0_100_5379">
<rect width="24" height="24" fill="white"/>
</clipPath>
</defs>
</svg>
